<?xml version="1.0" standalone="no"?>
<!DOCTYPE svg PUBLIC "-//W3C//DTD SVG 20010904//EN"
 "http://www.w3.org/TR/2001/REC-SVG-20010904/DTD/svg10.dtd">
<svg version="1.0" xmlns="http://www.w3.org/2000/svg"
 width="133.000000pt" height="114.000000pt" viewBox="0 0 133.000000 114.000000"
 preserveAspectRatio="xMidYMid meet">

<g transform="translate(0.000000,114.000000) scale(0.100000,-0.100000)"
fill="#000000" stroke="none">
<path d="M5 1128 c-3 -7 -4 -263 -3 -568 l3 -555 656 -3 657 -2 6 22 c10 39 7
1064 -4 1092 l-10 26 -650 0 c-511 0 -652 -3 -655 -12z m1273 -560 l2 -528
-625 0 -625 0 0 523 c0 288 3 527 7 530 3 4 284 6 622 5 l616 -3 3 -527z"/>
<path d="M72 568 l3 -463 300 0 300 0 0 460 0 460 -303 3 -302 2 2 -462z m502
276 c37 -37 23 -63 -139 -250 l-155 -179 160 -5 c128 -4 163 -8 170 -20 15
-23 12 -38 -12 -54 -18 -13 -56 -16 -210 -16 -102 0 -198 4 -212 10 -31 11
-52 51 -40 73 5 8 78 94 162 190 83 97 152 178 152 181 0 3 -60 6 -134 6 -149
0 -169 8 -148 55 l12 25 189 0 c159 0 192 -3 205 -16z"/>
<path d="M810 862 l-25 -20 -3 -239 c-3 -263 1 -285 52 -291 52 -6 66 19 66
123 l0 92 96 6 c162 9 224 58 224 178 0 66 -25 111 -80 143 -29 17 -56 21
-170 24 -124 4 -137 2 -160 -16z m264 -93 c21 -17 26 -29 26 -64 0 -60 -28
-79 -127 -83 l-73 -4 0 86 0 86 74 0 c59 0 78 -4 100 -21z"/>
</g>
</svg>
